<?xml version="1.0" standalone="no"?>
<!DOCTYPE svg PUBLIC "-//W3C//DTD SVG 20010904//EN"
 "http://www.w3.org/TR/2001/REC-SVG-20010904/DTD/svg10.dtd">
<svg version="1.0" xmlns="http://www.w3.org/2000/svg"
 width="700.000000pt" height="700.000000pt" viewBox="0 0 700.000000 700.000000"
 preserveAspectRatio="xMidYMid meet">
<metadata>
Created by potrace 1.14, written by Peter Selinger 2001-2017
</metadata>
<g transform="translate(0.000000,700.000000) scale(0.100000,-0.100000)"
fill="#000000" stroke="none">
<path d="M1769 6996 c-2 -2 -35 -6 -74 -10 -242 -23 -540 -123 -760 -256 -367
-222 -617 -513 -797 -930 -35 -80 -91 -274 -103 -355 -4 -22 -8 -47 -11 -55
-16 -58 -19 -338 -19 -1895 0 -1549 3 -1823 20 -1885 2 -8 7 -33 10 -55 3 -22
15 -74 26 -115 11 -41 21 -82 23 -90 33 -129 185 -439 268 -545 5 -5 22 -28
39 -50 290 -377 701 -631 1169 -722 152 -30 252 -31 1985 -29 963 2 1766 6
1785 9 19 4 60 12 90 17 82 15 90 17 157 34 386 101 749 337 999 651 35 44 69
86 74 92 52 63 176 297 228 433 26 66 79 255 87 308 3 21 8 49 10 62 18 86 20
319 20 1915 0 1874 2 1770 -40 1976 -12 64 -58 207 -96 302 -242 613 -820
1074 -1469 1173 -25 3 -54 9 -65 12 -21 7 -3549 15 -3556 8z"/>
</g>
</svg>
