<svg width="44" height="44" viewBox="0 0 44 44" fill="none" xmlns="http://www.w3.org/2000/svg">
<rect width="44" height="44" rx="12" fill="#1B2846"/>
<path fill-rule="evenodd" clip-rule="evenodd" d="M37 22C37 30.2843 30.2843 37 22 37C13.7157 37 7 30.2843 7 22C7 13.7157 13.7157 7 22 7C30.2843 7 37 13.7157 37 22ZM22.5375 18.0737C21.0785 18.6805 18.1627 19.9365 13.7899 21.8417C13.0798 22.124 12.7078 22.4003 12.6739 22.6704C12.6167 23.1269 13.1884 23.3066 13.9668 23.5514C14.0727 23.5847 14.1824 23.6192 14.2949 23.6558C15.0608 23.9047 16.091 24.196 16.6266 24.2076C17.1124 24.218 17.6546 24.0178 18.2533 23.6067C22.3389 20.8488 24.448 19.4548 24.5804 19.4247C24.6738 19.4035 24.8032 19.3769 24.8909 19.4548C24.9786 19.5328 24.97 19.6804 24.9607 19.72C24.9041 19.9614 22.6602 22.0476 21.4989 23.1272C21.1369 23.4638 20.8801 23.7025 20.8276 23.7571C20.71 23.8792 20.5901 23.9947 20.475 24.1058C19.7634 24.7917 19.2299 25.306 20.5045 26.146C21.117 26.5496 21.6071 26.8834 22.0961 27.2164C22.6302 27.5801 23.1628 27.9428 23.852 28.3946C24.0276 28.5097 24.1953 28.6292 24.3586 28.7457C24.9801 29.1887 25.5384 29.5868 26.2282 29.5233C26.629 29.4864 27.0431 29.1095 27.2533 27.9855C27.7503 25.3289 28.727 19.5731 28.9528 17.2012C28.9725 16.9934 28.9477 16.7275 28.9277 16.6107C28.9077 16.494 28.8659 16.3276 28.7142 16.2045C28.5345 16.0587 28.257 16.0279 28.1329 16.0301C27.5688 16.04 26.7032 16.341 22.5375 18.0737Z" fill="#585F79"/>
</svg>
