<svg width="33" height="35" viewBox="0 0 33 35" fill="none" xmlns="http://www.w3.org/2000/svg">
<path fill-rule="evenodd" clip-rule="evenodd" d="M8.21417 17.1416C8.21417 12.2801 11.9581 8.33914 16.5765 8.33914C21.1949 8.33914 24.9388 12.2801 24.9388 17.1416C24.9388 22.003 21.1949 25.944 16.5765 25.944C11.9581 25.944 8.21417 22.003 8.21417 17.1416ZM16.5765 22.8554C13.5786 22.8554 11.1483 20.2972 11.1483 17.1416C11.1483 13.9859 13.5786 11.4277 16.5765 11.4277C19.5744 11.4277 22.0046 13.9859 22.0046 17.1416C22.0046 20.2972 19.5744 22.8554 16.5765 22.8554Z" fill="url(#paint0_linear_29_1870)"/>
<path fill-rule="evenodd" clip-rule="evenodd" d="M8.21417 17.1416C8.21417 12.2801 11.9581 8.33914 16.5765 8.33914C21.1949 8.33914 24.9388 12.2801 24.9388 17.1416C24.9388 22.003 21.1949 25.944 16.5765 25.944C11.9581 25.944 8.21417 22.003 8.21417 17.1416ZM16.5765 22.8554C13.5786 22.8554 11.1483 20.2972 11.1483 17.1416C11.1483 13.9859 13.5786 11.4277 16.5765 11.4277C19.5744 11.4277 22.0046 13.9859 22.0046 17.1416C22.0046 20.2972 19.5744 22.8554 16.5765 22.8554Z" fill="url(#paint1_radial_29_1870)"/>
<path d="M25.2691 10.0483C26.3484 10.0483 27.2233 9.12742 27.2233 7.99137C27.2233 6.85531 26.3484 5.93434 25.2691 5.93434C24.1899 5.93434 23.315 6.85531 23.315 7.99137C23.315 9.12742 24.1899 10.0483 25.2691 10.0483Z" fill="url(#paint2_linear_29_1870)"/>
<path d="M25.2691 10.0483C26.3484 10.0483 27.2233 9.12742 27.2233 7.99137C27.2233 6.85531 26.3484 5.93434 25.2691 5.93434C24.1899 5.93434 23.315 6.85531 23.315 7.99137C23.315 9.12742 24.1899 10.0483 25.2691 10.0483Z" fill="url(#paint3_radial_29_1870)"/>
<path fill-rule="evenodd" clip-rule="evenodd" d="M16.5765 0C12.1539 0 11.5993 0.0197326 9.86239 0.103154C8.1291 0.186371 6.94533 0.476168 5.90951 0.899943C4.83867 1.33794 3.93052 1.92407 3.02516 2.87701C2.11985 3.83003 1.56303 4.78597 1.14694 5.91318C0.744352 7.00351 0.469045 8.24959 0.389988 10.0741C0.310738 11.9024 0.291992 12.4862 0.291992 17.1416C0.291992 21.7969 0.310738 22.3807 0.389988 24.209C0.469045 26.0335 0.744352 27.2796 1.14694 28.3699C1.56303 29.4971 2.11985 30.4531 3.02516 31.4061C3.93052 32.359 4.83867 32.9452 5.90951 33.3832C6.94533 33.8069 8.1291 34.0967 9.86239 34.1799C11.5993 34.2634 12.1539 34.2831 16.5765 34.2831C20.9991 34.2831 21.5536 34.2634 23.2905 34.1799C25.0238 34.0967 26.2076 33.8069 27.2434 33.3832C28.3143 32.9452 29.2224 32.359 30.1278 31.4061C31.0331 30.4531 31.5899 29.4971 32.006 28.3699C32.4086 27.2796 32.6839 26.0335 32.7629 24.209C32.8422 22.3807 32.8609 21.7969 32.8609 17.1416C32.8609 12.4862 32.8422 11.9024 32.7629 10.0741C32.6839 8.24959 32.4086 7.00351 32.006 5.91318C31.5899 4.78597 31.0331 3.83003 30.1278 2.87701C29.2224 1.92407 28.3143 1.33794 27.2434 0.899943C26.2076 0.476168 25.0238 0.186371 23.2905 0.103154C21.5536 0.0197326 20.9991 0 16.5765 0ZM16.5765 3.08856C20.9246 3.08856 21.4397 3.10605 23.1568 3.18852C24.7445 3.26473 25.6068 3.54398 26.1806 3.77873C26.9407 4.08969 27.4832 4.46113 28.053 5.06101C28.6229 5.66081 28.9757 6.23183 29.2711 7.03195C29.4942 7.63597 29.7594 8.54361 29.8318 10.2149C29.9102 12.0224 29.9268 12.5646 29.9268 17.1416C29.9268 21.7185 29.9102 22.2607 29.8318 24.0682C29.7594 25.7395 29.4942 26.6471 29.2711 27.2511C28.9757 28.0513 28.6229 28.6223 28.053 29.2221C27.4832 29.822 26.9407 30.1934 26.1806 30.5044C25.6068 30.7391 24.7445 31.0184 23.1568 31.0946C21.4399 31.177 20.9249 31.1945 16.5765 31.1945C12.228 31.1945 11.7131 31.177 9.99614 31.0946C8.40842 31.0184 7.54617 30.7391 6.97235 30.5044C6.21223 30.1934 5.66976 29.822 5.09995 29.2221C4.53014 28.6223 4.1772 28.0513 3.88179 27.2511C3.65877 26.6471 3.39349 25.7395 3.32109 24.0682C3.24274 22.2607 3.22613 21.7185 3.22613 17.1416C3.22613 12.5646 3.24274 12.0224 3.32109 10.2149C3.39349 8.54361 3.65877 7.63597 3.88179 7.03195C4.1772 6.23183 4.53007 5.66081 5.09995 5.06101C5.66976 4.46113 6.21223 4.08969 6.97235 3.77873C7.54617 3.54398 8.40842 3.26473 9.99614 3.18852C11.7133 3.10605 12.2283 3.08856 16.5765 3.08856Z" fill="url(#paint4_linear_29_1870)"/>
<path fill-rule="evenodd" clip-rule="evenodd" d="M16.5765 0C12.1539 0 11.5993 0.0197326 9.86239 0.103154C8.1291 0.186371 6.94533 0.476168 5.90951 0.899943C4.83867 1.33794 3.93052 1.92407 3.02516 2.87701C2.11985 3.83003 1.56303 4.78597 1.14694 5.91318C0.744352 7.00351 0.469045 8.24959 0.389988 10.0741C0.310738 11.9024 0.291992 12.4862 0.291992 17.1416C0.291992 21.7969 0.310738 22.3807 0.389988 24.209C0.469045 26.0335 0.744352 27.2796 1.14694 28.3699C1.56303 29.4971 2.11985 30.4531 3.02516 31.4061C3.93052 32.359 4.83867 32.9452 5.90951 33.3832C6.94533 33.8069 8.1291 34.0967 9.86239 34.1799C11.5993 34.2634 12.1539 34.2831 16.5765 34.2831C20.9991 34.2831 21.5536 34.2634 23.2905 34.1799C25.0238 34.0967 26.2076 33.8069 27.2434 33.3832C28.3143 32.9452 29.2224 32.359 30.1278 31.4061C31.0331 30.4531 31.5899 29.4971 32.006 28.3699C32.4086 27.2796 32.6839 26.0335 32.7629 24.209C32.8422 22.3807 32.8609 21.7969 32.8609 17.1416C32.8609 12.4862 32.8422 11.9024 32.7629 10.0741C32.6839 8.24959 32.4086 7.00351 32.006 5.91318C31.5899 4.78597 31.0331 3.83003 30.1278 2.87701C29.2224 1.92407 28.3143 1.33794 27.2434 0.899943C26.2076 0.476168 25.0238 0.186371 23.2905 0.103154C21.5536 0.0197326 20.9991 0 16.5765 0ZM16.5765 3.08856C20.9246 3.08856 21.4397 3.10605 23.1568 3.18852C24.7445 3.26473 25.6068 3.54398 26.1806 3.77873C26.9407 4.08969 27.4832 4.46113 28.053 5.06101C28.6229 5.66081 28.9757 6.23183 29.2711 7.03195C29.4942 7.63597 29.7594 8.54361 29.8318 10.2149C29.9102 12.0224 29.9268 12.5646 29.9268 17.1416C29.9268 21.7185 29.9102 22.2607 29.8318 24.0682C29.7594 25.7395 29.4942 26.6471 29.2711 27.2511C28.9757 28.0513 28.6229 28.6223 28.053 29.2221C27.4832 29.822 26.9407 30.1934 26.1806 30.5044C25.6068 30.7391 24.7445 31.0184 23.1568 31.0946C21.4399 31.177 20.9249 31.1945 16.5765 31.1945C12.228 31.1945 11.7131 31.177 9.99614 31.0946C8.40842 31.0184 7.54617 30.7391 6.97235 30.5044C6.21223 30.1934 5.66976 29.822 5.09995 29.2221C4.53014 28.6223 4.1772 28.0513 3.88179 27.2511C3.65877 26.6471 3.39349 25.7395 3.32109 24.0682C3.24274 22.2607 3.22613 21.7185 3.22613 17.1416C3.22613 12.5646 3.24274 12.0224 3.32109 10.2149C3.39349 8.54361 3.65877 7.63597 3.88179 7.03195C4.1772 6.23183 4.53007 5.66081 5.09995 5.06101C5.66976 4.46113 6.21223 4.08969 6.97235 3.77873C7.54617 3.54398 8.40842 3.26473 9.99614 3.18852C11.7133 3.10605 12.2283 3.08856 16.5765 3.08856Z" fill="url(#paint5_radial_29_1870)"/>
<defs>
<linearGradient id="paint0_linear_29_1870" x1="2.19229" y1="1.80236" x2="13.4939" y2="43.3324" gradientUnits="userSpaceOnUse">
<stop stop-color="#4E60D3"/>
<stop offset="0.142763" stop-color="#913BAF"/>
<stop offset="0.761458" stop-color="#D52D88"/>
<stop offset="1" stop-color="#F26D4F"/>
</linearGradient>
<radialGradient id="paint1_radial_29_1870" cx="0" cy="0" r="1" gradientUnits="userSpaceOnUse" gradientTransform="translate(10.152 34.2831) rotate(33.4987) scale(30.8797 22.698)">
<stop stop-color="#FED276"/>
<stop offset="0.17024" stop-color="#FDBD61" stop-opacity="0.975006"/>
<stop offset="0.454081" stop-color="#F6804D"/>
<stop offset="1" stop-color="#E83D5C" stop-opacity="0.01"/>
</radialGradient>
<linearGradient id="paint2_linear_29_1870" x1="2.19229" y1="1.80236" x2="13.4939" y2="43.3324" gradientUnits="userSpaceOnUse">
<stop stop-color="#4E60D3"/>
<stop offset="0.142763" stop-color="#913BAF"/>
<stop offset="0.761458" stop-color="#D52D88"/>
<stop offset="1" stop-color="#F26D4F"/>
</linearGradient>
<radialGradient id="paint3_radial_29_1870" cx="0" cy="0" r="1" gradientUnits="userSpaceOnUse" gradientTransform="translate(10.152 34.2831) rotate(33.4987) scale(30.8797 22.698)">
<stop stop-color="#FED276"/>
<stop offset="0.17024" stop-color="#FDBD61" stop-opacity="0.975006"/>
<stop offset="0.454081" stop-color="#F6804D"/>
<stop offset="1" stop-color="#E83D5C" stop-opacity="0.01"/>
</radialGradient>
<linearGradient id="paint4_linear_29_1870" x1="2.19229" y1="1.80236" x2="13.4939" y2="43.3324" gradientUnits="userSpaceOnUse">
<stop stop-color="#4E60D3"/>
<stop offset="0.142763" stop-color="#913BAF"/>
<stop offset="0.761458" stop-color="#D52D88"/>
<stop offset="1" stop-color="#F26D4F"/>
</linearGradient>
<radialGradient id="paint5_radial_29_1870" cx="0" cy="0" r="1" gradientUnits="userSpaceOnUse" gradientTransform="translate(10.152 34.2831) rotate(33.4987) scale(30.8797 22.698)">
<stop stop-color="#FED276"/>
<stop offset="0.17024" stop-color="#FDBD61" stop-opacity="0.975006"/>
<stop offset="0.454081" stop-color="#F6804D"/>
<stop offset="1" stop-color="#E83D5C" stop-opacity="0.01"/>
</radialGradient>
</defs>
</svg>
