<svg width="69" height="43" viewBox="0 0 69 43" fill="none" xmlns="http://www.w3.org/2000/svg">
<path d="M65.32 0H3.68C1.64759 0 0 1.63497 0 3.6518V39.3482C0 41.365 1.64759 43 3.68 43H65.32C67.3524 43 69 41.365 69 39.3482V3.6518C69 1.63497 67.3524 0 65.32 0Z" fill="#1B2846"/>
<path d="M20.3439 38.4966V36.2279C20.3439 35.3578 19.8103 34.7909 18.9344 34.7909C18.4744 34.7909 17.9822 34.9424 17.6391 35.43C17.3723 35.0137 16.9951 34.7909 16.4201 34.7909C15.9858 34.7723 15.5712 34.9712 15.3161 35.3204V34.8639H14.592V38.4938H15.3161V36.4169C15.3161 35.7778 15.697 35.472 16.2306 35.472C16.7642 35.472 17.0687 35.8125 17.0687 36.4169V38.4966H17.7927V36.4169C17.7927 35.7778 18.1736 35.472 18.7072 35.472C19.2408 35.472 19.5453 35.8125 19.5453 36.4169V38.4966H20.3439ZM32.2321 34.9041H30.8981V33.8086H30.1759V34.9041H29.4142V35.5432H30.1759V37.2486C30.1759 38.0803 30.4804 38.5723 31.3949 38.5723C31.7414 38.5652 32.0808 38.4743 32.3839 38.3076L32.1548 37.6685C31.9493 37.796 31.7109 37.8617 31.4685 37.8575C31.0876 37.8575 30.8972 37.6302 30.8972 37.2522V35.514H32.2312V34.9087L32.2321 34.9041ZM39.0144 34.7909C38.6132 34.782 38.2369 34.9831 38.0235 35.3204V34.8639H37.2995V38.4938H38.0235V36.4552C38.0235 35.8499 38.328 35.472 38.8239 35.472C38.9913 35.4787 39.1573 35.5041 39.3189 35.5477L39.548 34.8667C39.3733 34.823 39.1944 34.7976 39.0144 34.7909ZM28.7646 35.1689C28.3838 34.9041 27.8502 34.7909 27.2788 34.7909C26.3644 34.7909 25.793 35.2072 25.793 35.9257C25.793 36.531 26.2126 36.8706 27.012 36.9847L27.3929 37.0221C27.8124 37.0979 28.0792 37.2495 28.0792 37.4385C28.0792 37.7032 27.7747 37.8949 27.2025 37.8949C26.7655 37.9039 26.3376 37.7712 25.9835 37.517L25.6026 38.0839C26.1362 38.4619 26.7839 38.5404 27.1666 38.5404C28.2338 38.5404 28.8051 38.0492 28.8051 37.3682C28.8051 36.7291 28.3451 36.4233 27.5475 36.3091L27.1666 36.2717C26.8234 36.2343 26.5226 36.1202 26.5226 35.8937C26.5226 35.629 26.8271 35.4373 27.2466 35.4373C27.7066 35.4373 28.1611 35.6262 28.3902 35.7395L28.7646 35.1689ZM39.8148 36.6816C39.8148 37.7772 40.5388 38.5723 41.7201 38.5723C42.2537 38.5723 42.6346 38.4591 43.0154 38.156L42.6346 37.5891C42.3649 37.8058 42.0294 37.9258 41.6824 37.9296C41.0384 37.9296 40.5388 37.4385 40.5388 36.72C40.5388 36.0015 41.0319 35.514 41.6824 35.514C42.0294 35.5178 42.3649 35.6378 42.6346 35.8545L43.0154 35.2875C42.6346 34.9854 42.2537 34.8712 41.7201 34.8712C40.5765 34.7955 39.8148 35.5897 39.8148 36.6862V36.6816ZM34.7088 34.7909C33.6416 34.7909 32.9175 35.5468 32.9175 36.6816C32.9175 37.8164 33.6793 38.5723 34.7842 38.5723C35.3217 38.5836 35.8467 38.4101 36.27 38.0812L35.8891 37.5517C35.583 37.7871 35.2091 37.9195 34.8219 37.9296C34.327 37.9296 33.7934 37.6274 33.7179 36.9847H36.4236V36.6825C36.4236 35.5477 35.7373 34.7918 34.7088 34.7918V34.7909ZM34.671 35.472C35.2046 35.472 35.5855 35.8125 35.6232 36.3794H33.6425C33.7566 35.8499 34.1025 35.472 34.671 35.472ZM24.8022 36.6816V34.8667H24.0782V35.3231C23.8114 34.9826 23.4342 34.7936 22.8969 34.7936C21.8683 34.7936 21.1056 35.5879 21.1056 36.6844C21.1056 37.7808 21.8674 38.5751 22.8969 38.5751C23.4305 38.5751 23.8114 38.3861 24.0782 38.0456V38.502H24.8022V36.6816ZM21.8683 36.6816C21.8683 36.0006 22.2878 35.472 23.0119 35.472C23.6982 35.472 24.1159 36.0015 24.1159 36.6816C24.1159 37.4001 23.6559 37.8913 23.0119 37.8913C22.2878 37.9287 21.8683 37.3618 21.8683 36.6816ZM50.0277 34.7909C49.6265 34.782 49.2502 34.9831 49.0368 35.3204V34.8639H48.3128V38.4938H49.0359V36.4552C49.0359 35.8499 49.3404 35.472 49.8363 35.472C50.0037 35.4787 50.1697 35.5041 50.3313 35.5477L50.5604 34.8667C50.3857 34.823 50.2068 34.7976 50.0268 34.7909H50.0277ZM47.2079 36.6816V34.8667H46.4838V35.3231C46.217 34.9826 45.8398 34.7936 45.3026 34.7936C44.274 34.7936 43.5113 35.5879 43.5113 36.6844C43.5113 37.7808 44.2731 38.5751 45.3026 38.5751C45.8362 38.5751 46.217 38.3861 46.4838 38.0456V38.502H47.2079V36.6816ZM44.274 36.6816C44.274 36.0006 44.6935 35.472 45.4176 35.472C46.1039 35.472 46.5216 36.0015 46.5216 36.6816C46.5216 37.4001 46.0616 37.8913 45.4176 37.8913C44.6935 37.9287 44.274 37.3618 44.274 36.6816ZM54.5624 36.6816V33.4297H53.8383V35.3204C53.5715 34.9799 53.1943 34.7909 52.657 34.7909C51.6285 34.7909 50.8658 35.5852 50.8658 36.6816C50.8658 37.7781 51.6276 38.5723 52.657 38.5723C53.1906 38.5723 53.5715 38.3834 53.8383 38.0428V38.4993H54.5624V36.6816ZM51.6285 36.6816C51.6285 36.0006 52.048 35.472 52.772 35.472C53.4584 35.472 53.876 36.0015 53.876 36.6816C53.876 37.4001 53.416 37.8913 52.772 37.8913C52.0471 37.9296 51.6276 37.3627 51.6276 36.6816H51.6285Z" fill="white"/>
<path d="M41.1488 7.33936H27.9265V28.7408H41.1488V7.33936Z" fill="#FF5F00"/>
<path d="M29.2606 18.0401C29.2615 13.869 31.1843 9.92735 34.4807 7.33935C28.8569 2.95158 20.7793 3.58938 15.9255 8.80445C11.0717 14.0195 11.0717 22.0606 15.9255 27.2756C20.7793 32.4907 28.8569 33.1285 34.4807 28.7407C31.1843 26.1528 29.2615 22.2111 29.2606 18.0401Z" fill="#EB001B"/>
<path d="M56.6959 18.04C56.6997 23.2481 53.7056 28.0009 48.9859 30.2787C44.2662 32.5565 38.6501 31.9593 34.5239 28.7407C37.8211 26.1534 39.7442 22.2113 39.7442 18.04C39.7442 13.8687 37.8211 9.92668 34.5239 7.33931C38.6501 4.12076 44.2662 3.5235 48.9859 5.80133C53.7056 8.07917 56.6997 12.8319 56.6959 18.04Z" fill="#F79E1B"/>
</svg>
