<svg width="69" height="43" viewBox="0 0 69 43" fill="none" xmlns="http://www.w3.org/2000/svg">
<path d="M65 0H4C1.79086 0 0 1.79086 0 4V39C0 41.2091 1.79086 43 4 43H65C67.2091 43 69 41.2091 69 39V4C69 1.79086 67.2091 0 65 0Z" fill="#1B2846"/>
<path fill-rule="evenodd" clip-rule="evenodd" d="M50.7475 17.3626C49.3506 17.3626 48.2409 17.7281 47.3923 17.8978L47.1312 20.0258C47.549 19.8169 48.8936 19.4514 50.0033 19.4122C51.113 19.373 51.7657 19.6211 51.5308 20.561C48.2409 20.561 46.0215 21.2399 45.5646 23.3679C44.9119 27.0233 48.9198 26.9188 50.5255 25.3261L50.3297 26.2008H53.2671L54.5334 20.3783C55.0556 17.937 52.8101 17.3234 50.7475 17.3626ZM50.9433 23.3157C50.7866 24.099 50.16 24.4253 49.4158 24.4645C48.7631 24.5037 48.1756 23.9292 48.6064 23.2504C48.9328 22.676 49.8467 22.5454 50.395 22.5454C50.6169 22.5454 50.8911 22.5454 51.113 22.5454C51.0477 22.8065 51.0086 23.0415 50.9433 23.3157Z" fill="#4C98D1"/>
<path fill-rule="evenodd" clip-rule="evenodd" d="M57.0398 15.0649L54.6116 26.227H57.6012L60.0555 15.0649H57.0398Z" fill="#4C98D1"/>
<path fill-rule="evenodd" clip-rule="evenodd" d="M43.3583 15.0908H37.9013L35.4861 26.2137H38.6584L39.4809 22.5322H41.7394C43.9588 22.5322 45.7865 21.1745 46.2826 18.8768C46.8178 16.2788 44.9249 15.0908 43.3583 15.0908ZM43.2538 18.8768C43.058 19.7253 42.2094 20.4042 41.3869 20.4042H39.9117L40.5645 17.3624H42.1311C42.9666 17.3624 43.4496 18.0413 43.2538 18.8768Z" fill="#4C98D1"/>
<path fill-rule="evenodd" clip-rule="evenodd" d="M22.183 17.3631C20.7992 17.3631 19.7026 17.7286 18.8932 17.8983L18.6321 20.0263C19.0237 19.8174 20.3423 19.4519 21.4389 19.4127C22.5355 19.3735 23.1752 19.6216 22.9794 20.5615C19.7287 20.5615 17.5354 21.2404 17.0916 23.3684C16.4519 27.0238 20.4075 26.9193 21.948 25.3266L21.7522 26.2013H24.6896L25.9429 20.3788C26.4651 17.9375 24.2066 17.3239 22.183 17.3631ZM22.405 23.3161C22.2483 24.0994 21.5956 24.4258 20.8645 24.465C20.2248 24.5041 19.6765 23.9297 20.0942 23.2509C20.4206 22.6764 21.3214 22.5459 21.8305 22.5459C22.0916 22.5459 22.3136 22.5459 22.5747 22.5459C22.4964 22.807 22.4311 23.042 22.405 23.3161Z" fill="#2743BE"/>
<path fill-rule="evenodd" clip-rule="evenodd" d="M27.2222 17.5195H30.1596L30.6295 22.7024L33.4886 17.5195H36.5174L29.559 29.9218H26.2822L28.4232 26.2794L27.2222 17.5195Z" fill="#2743BE"/>
<path fill-rule="evenodd" clip-rule="evenodd" d="M14.8852 15.0913H9.42823L7 26.2142H10.2115L10.9948 22.5327H13.2925C15.4858 22.5327 17.3265 21.1749 17.8095 18.8773C18.3579 16.2793 16.491 15.0913 14.8852 15.0913ZM14.7938 18.8773C14.598 19.7258 13.7755 20.4047 12.9531 20.4047H11.4518L12.1437 17.3629H13.7103C14.4936 17.3629 15.0288 18.0417 14.7938 18.8773Z" fill="#2743BE"/>
<path d="M60.6953 16.5013V15.1828H60.1992V15H61.3872V15.1828H60.8911V16.5013H60.6953Z" fill="#2743BE"/>
<path d="M61.583 16.5015V15.0132H61.8833L62.2358 16.0706C62.2749 16.1751 62.288 16.2404 62.301 16.2926C62.3141 16.2404 62.3402 16.162 62.3794 16.0576L62.7318 15.0262H62.9929V16.5145H62.7971V15.2612L62.3663 16.5145H62.1835L61.7527 15.2482V16.5145H61.583V16.5015Z" fill="#2743BE"/>
</svg>
