<svg width="44" height="44" viewBox="0 0 44 44" fill="none" xmlns="http://www.w3.org/2000/svg">
<rect width="44" height="44" rx="12" fill="#1B2846"/>
<path fill-rule="evenodd" clip-rule="evenodd" d="M14.8108 22C14.8108 17.7459 18.0295 14.2973 22 14.2973C25.9705 14.2973 29.1892 17.7459 29.1892 22C29.1892 26.2541 25.9705 29.7027 22 29.7027C18.0295 29.7027 14.8108 26.2541 14.8108 22ZM22 27C19.4227 27 17.3333 24.7614 17.3333 22C17.3333 19.2386 19.4227 17 22 17C24.5773 17 26.6667 19.2386 26.6667 22C26.6667 24.7614 24.5773 27 22 27Z" fill="#586079"/>
<path fill-rule="evenodd" clip-rule="evenodd" d="M14.8108 22C14.8108 17.7459 18.0295 14.2973 22 14.2973C25.9705 14.2973 29.1892 17.7459 29.1892 22C29.1892 26.2541 25.9705 29.7027 22 29.7027C18.0295 29.7027 14.8108 26.2541 14.8108 22ZM22 27C19.4227 27 17.3333 24.7614 17.3333 22C17.3333 19.2386 19.4227 17 22 17C24.5773 17 26.6667 19.2386 26.6667 22C26.6667 24.7614 24.5773 27 22 27Z" fill="#585F79"/>
<path d="M29.4732 15.793C30.4011 15.793 31.1532 14.9871 31.1532 13.993C31.1532 12.9989 30.4011 12.1929 29.4732 12.1929C28.5454 12.1929 27.7932 12.9989 27.7932 13.993C27.7932 14.9871 28.5454 15.793 29.4732 15.793Z" fill="#586079"/>
<path d="M29.4732 15.793C30.4011 15.793 31.1532 14.9871 31.1532 13.993C31.1532 12.9989 30.4011 12.1929 29.4732 12.1929C28.5454 12.1929 27.7932 12.9989 27.7932 13.993C27.7932 14.9871 28.5454 15.793 29.4732 15.793Z" fill="#585F79"/>
<path fill-rule="evenodd" clip-rule="evenodd" d="M22 7C18.1978 7 17.7211 7.01727 16.2278 7.09027C14.7377 7.16309 13.72 7.41668 12.8295 7.78751C11.9088 8.17079 11.1281 8.68369 10.3497 9.51758C9.57144 10.3515 9.09273 11.188 8.73501 12.1744C8.3889 13.1285 8.15221 14.2189 8.08425 15.8155C8.01612 17.4154 8 17.9262 8 22C8 26.0738 8.01612 26.5846 8.08425 28.1845C8.15221 29.7811 8.3889 30.8715 8.73501 31.8256C9.09273 32.812 9.57144 33.6485 10.3497 34.4824C11.1281 35.3163 11.9088 35.8292 12.8295 36.2126C13.72 36.5833 14.7377 36.8369 16.2278 36.9097C17.7211 36.9827 18.1978 37 22 37C25.8022 37 26.2789 36.9827 27.7722 36.9097C29.2623 36.8369 30.28 36.5833 31.1705 36.2126C32.0912 35.8292 32.8719 35.3163 33.6503 34.4824C34.4286 33.6485 34.9073 32.812 35.265 31.8256C35.6111 30.8715 35.8478 29.7811 35.9158 28.1845C35.9839 26.5846 36 26.0738 36 22C36 17.9262 35.9839 17.4154 35.9158 15.8155C35.8478 14.2189 35.6111 13.1285 35.265 12.1744C34.9073 11.188 34.4286 10.3515 33.6503 9.51758C32.8719 8.68369 32.0912 8.17079 31.1705 7.78751C30.28 7.41668 29.2623 7.16309 27.7722 7.09027C26.2789 7.01727 25.8022 7 22 7ZM22 9.7027C25.7382 9.7027 26.181 9.718 27.6572 9.79017C29.0222 9.85685 29.7635 10.1012 30.2568 10.3066C30.9103 10.5787 31.3767 10.9038 31.8665 11.4287C32.3565 11.9536 32.6598 12.4533 32.9138 13.1534C33.1055 13.682 33.3336 14.4762 33.3958 15.9387C33.4632 17.5204 33.4775 17.9948 33.4775 22C33.4775 26.0052 33.4632 26.4796 33.3958 28.0613C33.3336 29.5238 33.1055 30.318 32.9138 30.8466C32.6598 31.5467 32.3565 32.0464 31.8665 32.5713C31.3767 33.0962 30.9103 33.4213 30.2568 33.6934C29.7635 33.8988 29.0222 34.1431 27.6572 34.2098C26.1812 34.282 25.7384 34.2973 22 34.2973C18.2616 34.2973 17.8189 34.282 16.3428 34.2098C14.9778 34.1431 14.2365 33.8988 13.7432 33.6934C13.0897 33.4213 12.6234 33.0962 12.1335 32.5713C11.6436 32.0464 11.3402 31.5467 11.0862 30.8466C10.8945 30.318 10.6664 29.5238 10.6042 28.0613C10.5368 26.4796 10.5225 26.0052 10.5225 22C10.5225 17.9948 10.5368 17.5204 10.6042 15.9387C10.6664 14.4762 10.8945 13.682 11.0862 13.1534C11.3402 12.4533 11.6435 11.9536 12.1335 11.4287C12.6234 10.9038 13.0897 10.5787 13.7432 10.3066C14.2365 10.1012 14.9778 9.85685 16.3428 9.79017C17.819 9.718 18.2619 9.7027 22 9.7027Z" fill="#586079"/>
<path fill-rule="evenodd" clip-rule="evenodd" d="M22 7C18.1978 7 17.7211 7.01727 16.2278 7.09027C14.7377 7.16309 13.72 7.41668 12.8295 7.78751C11.9088 8.17079 11.1281 8.68369 10.3497 9.51758C9.57144 10.3515 9.09273 11.188 8.73501 12.1744C8.3889 13.1285 8.15221 14.2189 8.08425 15.8155C8.01612 17.4154 8 17.9262 8 22C8 26.0738 8.01612 26.5846 8.08425 28.1845C8.15221 29.7811 8.3889 30.8715 8.73501 31.8256C9.09273 32.812 9.57144 33.6485 10.3497 34.4824C11.1281 35.3163 11.9088 35.8292 12.8295 36.2126C13.72 36.5833 14.7377 36.8369 16.2278 36.9097C17.7211 36.9827 18.1978 37 22 37C25.8022 37 26.2789 36.9827 27.7722 36.9097C29.2623 36.8369 30.28 36.5833 31.1705 36.2126C32.0912 35.8292 32.8719 35.3163 33.6503 34.4824C34.4286 33.6485 34.9073 32.812 35.265 31.8256C35.6111 30.8715 35.8478 29.7811 35.9158 28.1845C35.9839 26.5846 36 26.0738 36 22C36 17.9262 35.9839 17.4154 35.9158 15.8155C35.8478 14.2189 35.6111 13.1285 35.265 12.1744C34.9073 11.188 34.4286 10.3515 33.6503 9.51758C32.8719 8.68369 32.0912 8.17079 31.1705 7.78751C30.28 7.41668 29.2623 7.16309 27.7722 7.09027C26.2789 7.01727 25.8022 7 22 7ZM22 9.7027C25.7382 9.7027 26.181 9.718 27.6572 9.79017C29.0222 9.85685 29.7635 10.1012 30.2568 10.3066C30.9103 10.5787 31.3767 10.9038 31.8665 11.4287C32.3565 11.9536 32.6598 12.4533 32.9138 13.1534C33.1055 13.682 33.3336 14.4762 33.3958 15.9387C33.4632 17.5204 33.4775 17.9948 33.4775 22C33.4775 26.0052 33.4632 26.4796 33.3958 28.0613C33.3336 29.5238 33.1055 30.318 32.9138 30.8466C32.6598 31.5467 32.3565 32.0464 31.8665 32.5713C31.3767 33.0962 30.9103 33.4213 30.2568 33.6934C29.7635 33.8988 29.0222 34.1431 27.6572 34.2098C26.1812 34.282 25.7384 34.2973 22 34.2973C18.2616 34.2973 17.8189 34.282 16.3428 34.2098C14.9778 34.1431 14.2365 33.8988 13.7432 33.6934C13.0897 33.4213 12.6234 33.0962 12.1335 32.5713C11.6436 32.0464 11.3402 31.5467 11.0862 30.8466C10.8945 30.318 10.6664 29.5238 10.6042 28.0613C10.5368 26.4796 10.5225 26.0052 10.5225 22C10.5225 17.9948 10.5368 17.5204 10.6042 15.9387C10.6664 14.4762 10.8945 13.682 11.0862 13.1534C11.3402 12.4533 11.6435 11.9536 12.1335 11.4287C12.6234 10.9038 13.0897 10.5787 13.7432 10.3066C14.2365 10.1012 14.9778 9.85685 16.3428 9.79017C17.819 9.718 18.2619 9.7027 22 9.7027Z" fill="#585F79"/>
</svg>
