<svg width="44" height="44" viewBox="0 0 44 44" fill="none" xmlns="http://www.w3.org/2000/svg">
<rect width="44" height="44" rx="12" fill="#1B2846"/>
<path d="M15.033 32.2428L15.4694 32.5104C17.303 33.636 19.4052 34.2313 21.5488 34.2325H21.5535C28.1368 34.2325 33.495 28.6909 33.4978 21.88C33.4987 18.5793 32.2577 15.4756 30.0025 13.141C27.7472 10.8064 24.7486 9.51983 21.558 9.51847C14.9694 9.51847 9.61145 15.0593 9.60883 21.87C9.60794 24.2039 10.2392 26.4768 11.4349 28.4436L11.7192 28.9109L10.5122 33.469L15.033 32.2428ZM7.06189 36.9998L9.10067 29.2989C7.84318 27.0451 7.18157 24.4883 7.18254 21.869C7.18571 13.6748 13.6321 7.0083 21.5535 7.0083C25.3976 7.01001 29.0056 8.55777 31.719 11.3667C34.432 14.1758 35.9256 17.9098 35.9243 21.881C35.9209 30.0747 29.4736 36.7425 21.5535 36.7425C21.553 36.7425 21.5539 36.7425 21.5535 36.7425H21.5473C19.1424 36.7415 16.7791 36.1175 14.6801 34.9333L7.06189 36.9998Z" fill="#585F79"/>
<path d="M7.66838 21.8576C7.66838 24.4055 8.31211 26.8665 9.54359 29.038L7.55643 36.479L14.9173 34.4812C16.9325 35.6394 19.2275 36.2184 21.5505 36.2184C29.1913 36.2184 35.4326 29.7908 35.4326 21.8866C35.4326 18.0358 33.9772 14.4456 31.3743 11.724C28.7435 9.03133 25.2729 7.52576 21.5505 7.52576C13.9097 7.52576 7.66838 13.9534 7.66838 21.8576Z" fill="#1B2846"/>
<path d="M7.17252 21.846C7.17252 24.4852 7.83933 27.0345 9.11497 29.2839L7.05655 36.9917L14.6814 34.9223C16.7688 36.1219 19.1461 36.7218 21.5524 36.7218C29.4672 36.7218 35.9324 30.0637 35.9324 21.876C35.9324 17.8871 34.4248 14.1682 31.7286 11.349C29.0033 8.55975 25.4084 7.00019 21.5524 7.00019C13.6377 7.00019 7.17252 13.6583 7.17252 21.846ZM11.7242 28.894L11.4343 28.4441C10.2456 26.4647 9.60783 24.1853 9.60783 21.876C9.60783 15.0379 14.9713 9.51948 21.5524 9.51948C24.7415 9.51948 27.7567 10.8091 29.9891 13.1185C32.2504 15.4578 33.4971 18.5769 33.4971 21.876C33.4971 28.6841 28.1336 34.2325 21.5524 34.2325C19.4071 34.2325 17.2907 33.6327 15.4642 32.493L15.0293 32.2231L10.5066 33.4527L11.7242 28.894Z" fill="#585F79"/>
<path fill-rule="evenodd" clip-rule="evenodd" d="M17.9617 15.6617C17.6927 15.0432 17.4096 15.0308 17.1537 15.0199C16.9444 15.0107 16.7048 15.0112 16.4656 15.0112C16.2262 15.0112 15.8371 15.1043 15.5082 15.476C15.1789 15.8477 14.2512 16.7462 14.2512 18.5738C14.2512 20.4015 15.5381 22.1675 15.7174 22.4155C15.897 22.6632 18.2015 26.5334 21.8513 28.0224C24.8845 29.2597 25.5018 29.0136 26.1601 28.9517C26.8185 28.8898 28.2846 28.0533 28.5838 27.1859C28.8831 26.3186 28.8831 25.5753 28.7933 25.4199C28.7035 25.2651 28.4641 25.1722 28.105 24.9864C27.7459 24.8007 25.9806 23.9019 25.6514 23.7781C25.3222 23.6543 25.0828 23.5923 24.8434 23.9642C24.604 24.3357 23.9162 25.1722 23.7067 25.4199C23.4972 25.6681 23.2878 25.6991 22.9286 25.5133C22.5695 25.327 21.413 24.9352 20.0411 23.6698C18.9737 22.6852 18.253 21.4694 18.0435 21.0975C17.834 20.726 18.0211 20.5248 18.2012 20.3396C18.3624 20.1731 18.5603 19.906 18.7399 19.6891C18.919 19.4722 18.9789 19.3174 19.0986 19.0697C19.2183 18.8216 19.1585 18.6047 19.0687 18.419C18.9789 18.2332 18.281 16.3962 17.9617 15.6617Z" fill="#585F79"/>
</svg>
