<svg width="184" height="69" viewBox="0 0 184 69" fill="none" xmlns="http://www.w3.org/2000/svg">
<path fill-rule="evenodd" clip-rule="evenodd" d="M139.418 17.1832C132.711 20.1273 117.909 21.475 108.717 22.18C103.511 22.5843 98.1799 20.7183 103.097 17.5564L101.254 12.6736C100.302 10.1544 102.962 9.55314 104.422 10.7661C105.85 11.9168 107.517 13.3474 109.048 14.7055C111.108 13.8036 113.313 12.8602 115.632 11.9375L107.33 3.67513C106.419 2.76284 105.757 2.25487 106.678 1.14561C107.661 -0.0465768 110.166 -0.0880443 111.357 0.523601L126.179 8.32985C131.5 6.16318 138.052 5.05392 142.782 8.60975C146.54 11.1185 144.811 14.8195 139.418 17.1832Z" fill="#EF382A"/>
<path fill-rule="evenodd" clip-rule="evenodd" d="M124.916 22.3252L129.999 30.3491C131.417 32.5884 131.096 32.692 132.638 32.381C134.139 32.0804 135.112 31.4169 135.112 28.5868C135.112 25.3108 135.071 22.5947 135.029 20.4902C134.212 20.6872 133.383 20.8738 132.566 21.0397C130.05 21.558 127.494 21.9623 124.927 22.3148L124.916 22.3252Z" fill="#EF382A"/>
<path d="M39.5005 50.44C40.7634 52.1402 41.3948 54.2135 41.3948 56.6705C41.3948 60.0708 40.1837 62.7351 37.7512 64.653C35.3187 66.5812 31.9754 67.5453 27.7108 67.5453H13.1263C12.0291 67.5453 11.1803 67.2447 10.5489 66.6434C9.92784 66.0421 9.61731 65.192 9.61731 64.0932V31.0747C9.61731 29.9758 9.92784 29.1257 10.5489 28.5244C11.17 27.9232 12.0291 27.6225 13.1263 27.6225H27.1518C31.3026 27.6225 34.5528 28.5348 36.9024 30.3697C39.2625 32.2047 40.4321 34.7549 40.4321 38.0412C40.4321 40.1561 39.8732 41.991 38.7656 43.5357C37.6581 45.0803 36.1158 46.2207 34.1594 46.936C36.4574 47.5787 38.2377 48.7502 39.5005 50.4504V50.44ZM16.7388 44.4376H25.9511C30.961 44.4376 33.4763 42.5715 33.4763 38.8291C33.4763 36.9423 32.8552 35.5428 31.6131 34.6409C30.371 33.739 28.4871 33.2828 25.9615 33.2828H16.7491V44.4376H16.7388ZM32.6896 60.4648C33.8903 59.5214 34.501 58.0493 34.501 56.0485C34.501 54.0477 33.8903 52.5548 32.6585 51.5803C31.4371 50.5955 29.5222 50.1083 26.9241 50.1083H16.7491V61.885H26.9241C29.5636 61.885 31.4889 61.4081 32.6896 60.4648Z" fill="#FCFCFC"/>
<path d="M48.6094 67.0063C47.947 66.4258 47.6157 65.586 47.6157 64.4872V42.6234C47.6157 41.5349 47.947 40.6952 48.6094 40.1354C49.2719 39.5652 50.1103 39.2853 51.1247 39.2853C52.1391 39.2853 52.9879 39.5652 53.671 40.1354C54.3542 40.7056 54.6854 41.5349 54.6854 42.6234V64.4872C54.6854 65.586 54.3438 66.4258 53.671 67.0063C52.9879 67.5972 52.1391 67.8875 51.1247 67.8875C50.1103 67.8875 49.2719 67.5972 48.6094 67.0063Z" fill="#FCFCFC"/>
<path d="M62.0346 65.5653C60.8235 64.85 60.2231 63.8237 60.2231 62.5071C60.2231 61.7503 60.4302 61.1386 60.8442 60.6618C61.2582 60.1849 61.7654 59.9568 62.3761 59.9568C63.0179 59.9568 63.9081 60.2575 65.0363 60.8587C66.2474 61.4289 67.3446 61.8643 68.3486 62.165C69.3423 62.4656 70.6155 62.6211 72.1682 62.6211C73.7208 62.6211 74.9836 62.3619 75.8738 61.8229C76.764 61.2942 77.1987 60.5581 77.1987 59.6147C77.1987 58.972 77.0228 58.464 76.6605 58.0804C76.2982 57.7072 75.6564 57.3547 74.7352 57.0334C73.814 56.712 72.4062 56.3492 70.5223 55.9241C67.1686 55.2503 64.7672 54.2861 63.3077 53.0421C61.8586 51.7981 61.134 50.0772 61.134 47.8898C61.134 46.2311 61.6205 44.7279 62.6039 43.3906C63.5872 42.0533 64.9328 41.0166 66.6511 40.2805C68.3694 39.5445 70.3153 39.1713 72.4994 39.1713C74.0831 39.1713 75.6047 39.3682 77.0745 39.7622C78.5443 40.1561 79.8589 40.7367 81.0286 41.4934C82.2293 42.2502 82.84 43.2454 82.84 44.4998C82.84 45.2566 82.633 45.889 82.2189 46.397C81.8049 46.9049 81.2977 47.1641 80.687 47.1641C80.273 47.1641 79.8693 47.0812 79.4759 46.9049C79.0826 46.7287 78.5754 46.4799 77.975 46.1378C76.8778 45.5676 75.9359 45.1529 75.1492 44.8627C74.3626 44.5724 73.3792 44.4376 72.2096 44.4376C70.8122 44.4376 69.715 44.7175 68.8972 45.2877C68.0899 45.8579 67.6862 46.625 67.6862 47.6099C67.6862 48.5947 68.1002 49.2686 68.9283 49.7662C69.7564 50.2534 71.3608 50.7511 73.7312 51.2383C76.2568 51.767 78.2338 52.3683 79.6726 53.0525C81.101 53.7367 82.1361 54.5868 82.7572 55.6027C83.3782 56.6187 83.6888 57.9249 83.6888 59.5111C83.6888 62.082 82.6226 64.1347 80.4903 65.6897C78.358 67.2344 75.5219 68.0119 71.9818 68.0119C67.8725 68.0119 64.5498 67.2033 62.0346 65.5757V65.5653Z" fill="#FCFCFC"/>
<path d="M106.316 65.1713C106.316 66.0733 105.954 66.7678 105.219 67.2344C104.484 67.7112 103.438 67.9082 102.082 67.8253L100.561 67.7112C94.226 67.2551 91.0586 63.8651 91.0586 57.5206V45.1737H88.2328C87.2184 45.1737 86.4318 44.9456 85.8832 44.4998C85.3346 44.0437 85.0654 43.3906 85.0654 42.5197C85.0654 41.6489 85.3346 40.9958 85.8832 40.5397C86.4318 40.0835 87.2081 39.8555 88.2328 39.8555H91.0586V34.6409C91.0586 33.625 91.3795 32.806 92.0213 32.2047C92.663 31.6034 93.5325 31.3028 94.6194 31.3028C95.7062 31.3028 96.5239 31.6034 97.1657 32.2047C97.8075 32.806 98.1283 33.625 98.1283 34.6409V39.8555H102.931C103.946 39.8555 104.732 40.0835 105.281 40.5397C105.829 40.9958 106.099 41.6489 106.099 42.5197C106.099 43.3906 105.829 44.054 105.281 44.4998C104.732 44.956 103.956 45.1737 102.931 45.1737H98.1283V58.0286C98.1283 60.8276 99.4119 62.3101 101.979 62.5071L103.5 62.6211C105.384 62.7351 106.326 63.5852 106.326 65.1713H106.316Z" fill="#FCFCFC"/>
<path d="M127.742 39.9073C128.312 40.3946 128.591 41.1306 128.591 42.1155C128.591 43.1003 128.343 43.8882 127.856 44.3858C127.37 44.8731 126.48 45.1944 125.196 45.3499L123.499 45.5158C121.273 45.7439 119.648 46.5007 118.603 47.7758C117.567 49.0613 117.05 50.6681 117.05 52.586V64.4768C117.05 65.5757 116.708 66.4154 116.036 66.996C115.352 67.5869 114.504 67.8771 113.489 67.8771C112.475 67.8771 111.636 67.5869 110.974 66.996C110.311 66.4154 109.98 65.5757 109.98 64.4768V42.5613C109.98 41.5038 110.311 40.6952 110.974 40.125C111.636 39.5549 112.454 39.275 113.437 39.275C114.421 39.275 115.207 39.5549 115.808 40.0939C116.408 40.6434 116.708 41.4209 116.708 42.4472V44.7072C117.423 43.0485 118.489 41.763 119.907 40.8611C121.325 39.9592 122.898 39.4408 124.627 39.3268L125.414 39.2646C126.397 39.192 127.163 39.3994 127.732 39.8866L127.742 39.9073Z" fill="#FCFCFC"/>
<path d="M132.638 67.0063C131.976 66.4258 131.645 65.586 131.645 64.4872V42.6234C131.645 41.5349 131.976 40.6952 132.638 40.1354C133.301 39.5652 134.139 39.2853 135.154 39.2853C136.168 39.2853 137.017 39.5652 137.7 40.1354C138.383 40.7056 138.714 41.5349 138.714 42.6234V64.4872C138.714 65.586 138.373 66.4258 137.7 67.0063C137.017 67.5972 136.168 67.8875 135.154 67.8875C134.139 67.8875 133.301 67.5972 132.638 67.0063Z" fill="#FCFCFC"/>
<path d="M171.734 64.4872C171.734 65.358 171.424 66.1251 170.803 66.8093C170.181 67.4832 169.457 67.8253 168.629 67.8253C167.801 67.8253 167.024 67.4832 166.31 66.8093L153.082 54.8045V64.4872C153.082 65.586 152.74 66.4154 152.067 66.9752C151.394 67.5454 150.535 67.8253 149.521 67.8253C148.507 67.8253 147.668 67.5454 147.006 66.9752C146.343 66.405 146.022 65.5757 146.022 64.4872V30.6808C146.022 29.5923 146.354 28.7526 147.006 28.1928C147.658 27.633 148.507 27.3427 149.521 27.3427C150.535 27.3427 151.384 27.6226 152.067 28.1928C152.75 28.7629 153.082 29.5923 153.082 30.6808V51.9744L165.182 40.3635C165.865 39.6896 166.631 39.3475 167.501 39.3475C168.37 39.3475 169.126 39.6689 169.767 40.3116C170.409 40.9544 170.73 41.7112 170.73 42.5716C170.73 43.4321 170.368 44.2303 169.654 44.9456L160.772 53.2184L170.616 62.0509C171.372 62.7663 171.744 63.5852 171.744 64.4872H171.734Z" fill="#FCFCFC"/>
<path d="M176.765 33.2C176.009 32.5054 175.636 31.5827 175.636 30.4527C175.636 29.3228 176.009 28.4105 176.765 27.7366C177.52 27.0628 178.535 26.7207 179.818 26.7207C181.102 26.7207 182.075 27.0628 182.841 27.7366C183.617 28.4208 184 29.3228 184 30.4527C184 31.5827 183.617 32.5054 182.872 33.2C182.116 33.8945 181.102 34.247 179.818 34.247C178.535 34.247 177.52 33.8945 176.765 33.2ZM177.303 67.0063C176.64 66.4258 176.309 65.586 176.309 64.4872V42.6234C176.309 41.5349 176.64 40.6952 177.303 40.1354C177.965 39.5652 178.804 39.2853 179.818 39.2853C180.833 39.2853 181.681 39.5652 182.364 40.1354C183.037 40.7056 183.379 41.5349 183.379 42.6234V64.4872C183.379 65.586 183.037 66.4258 182.364 67.0063C181.681 67.5972 180.833 67.8875 179.818 67.8875C178.804 67.8875 177.955 67.5972 177.303 67.0063Z" fill="#FCFCFC"/>
<path fill-rule="evenodd" clip-rule="evenodd" d="M101.058 23.113C50.1619 28.9599 12.2256 43.0174 4.83504 55.3332C3.51012 57.5413 3.69643 60.7862 9.61718 60.3404V62.5382C3.52047 64.5908 -2.22432 60.9106 0.860271 53.4153C10.1554 30.8467 70.988 16.0842 98.4181 14.4048C97.1346 17.0069 96.5135 20.4383 101.047 23.113H101.058Z" fill="#EF382A"/>
<path d="M16.7388 31.9144H9.61731V63.3157H16.7388V31.9144Z" fill="#FCFCFC"/>
<path d="M27.8865 44.4376H12.0702V50.0979H27.8865V44.4376Z" fill="#FCFCFC"/>
</svg>
