<svg width="160" height="53" viewBox="0 0 160 53" fill="none" xmlns="http://www.w3.org/2000/svg">
<path fill-rule="evenodd" clip-rule="evenodd" d="M106.832 13.0635C101.692 15.3196 90.3499 16.3522 83.3066 16.8924C79.317 17.2022 75.2322 15.7723 78.9997 13.3495L77.5879 9.60797C76.8582 7.67763 78.8966 7.21689 80.015 8.14632C81.1095 9.02808 82.3865 10.1243 83.5604 11.165C85.1388 10.4738 86.8282 9.75096 88.6049 9.04396L82.2438 2.71277C81.5458 2.01372 81.0382 1.62447 81.7441 0.774485C82.4976 -0.13905 84.417 -0.170825 85.3292 0.297858L96.6872 6.27953C100.764 4.61928 105.785 3.76929 109.409 6.49401C112.289 8.4164 110.964 11.2523 106.832 13.0635Z" fill="#EF382A"/>
<path fill-rule="evenodd" clip-rule="evenodd" d="M95.7195 17.0037L99.6139 23.1522C100.701 24.8681 100.455 24.9475 101.636 24.7092C102.787 24.4788 103.532 23.9704 103.532 21.8018C103.532 19.2915 103.5 17.2102 103.469 15.5977C102.842 15.7486 102.208 15.8916 101.581 16.0187C99.6536 16.4159 97.6945 16.7257 95.7274 16.9958L95.7195 17.0037Z" fill="#EF382A"/>
<path d="M33.4289 36.6879C34.5301 38.1705 35.0807 39.9786 35.0807 42.1211C35.0807 45.0864 34.0246 47.4097 31.9034 49.0822C29.7822 50.7637 26.8666 51.6045 23.1477 51.6045H10.4294C9.47256 51.6045 8.73238 51.3423 8.18177 50.818C7.64018 50.2936 7.36938 49.5523 7.36938 48.594V19.8005C7.36938 18.8422 7.64018 18.1009 8.18177 17.5765C8.72336 17.0522 9.47256 16.79 10.4294 16.79H22.6603C26.2799 16.79 29.1142 17.5856 31.1632 19.1857C33.2213 20.7859 34.2413 23.0098 34.2413 25.8756C34.2413 27.7198 33.7538 29.32 32.788 30.667C31.8222 32.014 30.4772 33.0084 28.7712 33.6322C30.7751 34.1927 32.3276 35.2143 33.4289 36.6969V36.6879ZM13.5796 31.4535H21.6132C25.982 31.4535 28.1755 29.8262 28.1755 26.5627C28.1755 24.9173 27.6339 23.6969 26.5507 22.9104C25.4675 22.1239 23.8247 21.7261 21.6222 21.7261H13.5886V31.4535H13.5796ZM27.4894 45.4299C28.5365 44.6072 29.0691 43.3235 29.0691 41.5787C29.0691 39.8339 28.5365 38.5321 27.4624 37.6823C26.3972 36.8235 24.7273 36.3986 22.4617 36.3986H13.5886V46.6684H22.4617C24.7634 46.6684 26.4424 46.2526 27.4894 45.4299Z" fill="#FCFCFC"/>
<path d="M41.3722 51.1349C40.7945 50.6286 40.5056 49.8963 40.5056 48.9381V29.8719C40.5056 28.9227 40.7945 28.1904 41.3722 27.7023C41.9499 27.205 42.681 26.9609 43.5656 26.9609C44.4502 26.9609 45.1904 27.205 45.7861 27.7023C46.3819 28.1995 46.6707 28.9227 46.6707 29.8719V48.9381C46.6707 49.8963 46.3728 50.6286 45.7861 51.1349C45.1904 51.6502 44.4502 51.9033 43.5656 51.9033C42.681 51.9033 41.9499 51.6502 41.3722 51.1349Z" fill="#FCFCFC"/>
<path d="M53.0796 49.8781C52.0235 49.2543 51.5 48.3593 51.5 47.2112C51.5 46.5512 51.6805 46.0179 52.0416 45.602C52.4026 45.1861 52.8449 44.9873 53.3775 44.9873C53.9372 44.9873 54.7134 45.2494 55.6973 45.7738C56.7534 46.271 57.7102 46.6507 58.5858 46.9129C59.4523 47.175 60.5626 47.3106 61.9166 47.3106C63.2705 47.3106 64.3718 47.0846 65.1481 46.6145C65.9243 46.1535 66.3035 45.5116 66.3035 44.6889C66.3035 44.1284 66.15 43.6854 65.8341 43.3509C65.5181 43.0255 64.9585 42.7181 64.1551 42.4379C63.3518 42.1576 62.1242 41.8412 60.4814 41.4706C57.5568 40.8829 55.4626 40.0422 54.1899 38.9573C52.9262 37.8725 52.2943 36.3718 52.2943 34.4643C52.2943 33.0178 52.7186 31.707 53.5761 30.5408C54.4336 29.3745 55.6071 28.4705 57.1055 27.8286C58.6038 27.1868 60.3008 26.8613 62.2054 26.8613C63.5865 26.8613 64.9134 27.0331 66.1951 27.3766C67.4769 27.7202 68.6233 28.2264 69.6433 28.8864C70.6903 29.5463 71.2229 30.4142 71.2229 31.5081C71.2229 32.168 71.0424 32.7195 70.6813 33.1625C70.3202 33.6054 69.8779 33.8314 69.3454 33.8314C68.9843 33.8314 68.6323 33.7591 68.2893 33.6054C67.9463 33.4518 67.504 33.2348 66.9804 32.9364C66.0236 32.4392 65.2022 32.0776 64.5162 31.8245C63.8302 31.5714 62.9727 31.4538 61.9527 31.4538C60.7341 31.4538 59.7773 31.6979 59.0642 32.1951C58.3601 32.6924 58.0081 33.3613 58.0081 34.2202C58.0081 35.079 58.3692 35.6666 59.0913 36.1006C59.8134 36.5255 61.2125 36.9594 63.2796 37.3843C65.482 37.8454 67.2061 38.3697 68.4608 38.9664C69.7064 39.563 70.6091 40.3043 71.1507 41.1903C71.6923 42.0763 71.9631 43.2153 71.9631 44.5985C71.9631 46.8405 71.0333 48.6305 69.1739 49.9866C67.3144 51.3336 64.8412 52.0116 61.7541 52.0116C58.1706 52.0116 55.2731 51.3065 53.0796 49.8871V49.8781Z" fill="#FCFCFC"/>
<path d="M91.695 49.5349C91.695 50.3214 91.379 50.9271 90.7382 51.3339C90.0973 51.7498 89.1856 51.9215 88.0031 51.8492L86.6762 51.7498C81.152 51.352 78.3899 48.3958 78.3899 42.8631V32.096H75.9257C75.0411 32.096 74.3551 31.8971 73.8767 31.5084C73.3983 31.1106 73.1636 30.5411 73.1636 29.7817C73.1636 29.0223 73.3983 28.4527 73.8767 28.055C74.3551 27.6572 75.0321 27.4583 75.9257 27.4583H78.3899V22.911C78.3899 22.025 78.6697 21.3109 79.2294 20.7865C79.789 20.2622 80.5472 20 81.495 20C82.4428 20 83.1559 20.2622 83.7155 20.7865C84.2752 21.3109 84.555 22.025 84.555 22.911V27.4583H88.7433C89.6279 27.4583 90.3139 27.6572 90.7923 28.055C91.2707 28.4527 91.5054 29.0223 91.5054 29.7817C91.5054 30.5411 91.2707 31.1196 90.7923 31.5084C90.3139 31.9062 89.6369 32.096 88.7433 32.096H84.555V43.3061C84.555 45.747 85.6743 47.0397 87.9129 47.2115L89.2398 47.3109C90.8826 47.4104 91.704 48.1517 91.704 49.5349H91.695Z" fill="#FCFCFC"/>
<path d="M110.38 27.503C110.876 27.9279 111.12 28.5697 111.12 29.4286C111.12 30.2874 110.903 30.9745 110.479 31.4084C110.055 31.8333 109.279 32.1136 108.159 32.2492L106.679 32.3938C104.738 32.5927 103.321 33.2527 102.409 34.3646C101.507 35.4856 101.055 36.8869 101.055 38.5593V48.9286C101.055 49.8869 100.758 50.6192 100.171 51.1254C99.5751 51.6407 98.835 51.8939 97.9504 51.8939C97.0658 51.8939 96.3346 51.6407 95.7569 51.1254C95.1792 50.6192 94.8904 49.8869 94.8904 48.9286V29.8173C94.8904 28.8952 95.1792 28.19 95.7569 27.6928C96.3346 27.1956 97.0477 26.9515 97.9052 26.9515C98.7627 26.9515 99.4488 27.1956 99.9723 27.6657C100.496 28.1448 100.758 28.8229 100.758 29.7179V31.6887C101.38 30.2422 102.31 29.1212 103.547 28.3347C104.783 27.5482 106.155 27.0962 107.663 26.9967L108.349 26.9425C109.206 26.8792 109.874 27.06 110.371 27.4849L110.38 27.503Z" fill="#FCFCFC"/>
<path d="M114.649 51.1349C114.072 50.6286 113.783 49.8963 113.783 48.9381V29.8719C113.783 28.9227 114.072 28.1904 114.649 27.7023C115.227 27.205 115.958 26.9609 116.843 26.9609C117.727 26.9609 118.467 27.205 119.063 27.7023C119.659 28.1995 119.948 28.9227 119.948 29.8719V48.9381C119.948 49.8963 119.65 50.6286 119.063 51.1349C118.467 51.6502 117.727 51.9033 116.843 51.9033C115.958 51.9033 115.227 51.6502 114.649 51.1349Z" fill="#FCFCFC"/>
<path d="M148.742 48.938C148.742 49.6974 148.472 50.3664 147.93 50.963C147.388 51.5507 146.757 51.849 146.034 51.849C145.312 51.849 144.635 51.5507 144.012 50.963L132.477 40.4943V48.938C132.477 49.8963 132.179 50.6195 131.592 51.1077C131.005 51.6049 130.256 51.849 129.372 51.849C128.487 51.849 127.756 51.6049 127.178 51.1077C126.6 50.6105 126.321 49.8872 126.321 48.938V19.4574C126.321 18.5081 126.609 17.7759 127.178 17.2877C127.747 16.7995 128.487 16.5464 129.372 16.5464C130.256 16.5464 130.996 16.7905 131.592 17.2877C132.188 17.7849 132.477 18.5081 132.477 19.4574V38.0263L143.029 27.9011C143.624 27.3135 144.292 27.0151 145.051 27.0151C145.809 27.0151 146.468 27.2954 147.027 27.8559C147.587 28.4164 147.867 29.0763 147.867 29.8267C147.867 30.577 147.551 31.2731 146.928 31.8969L139.183 39.1111L147.768 46.8135C148.426 47.4373 148.751 48.1515 148.751 48.938H148.742Z" fill="#FCFCFC"/>
<path d="M153.129 21.6541C152.47 21.0484 152.145 20.2438 152.145 19.2584C152.145 18.273 152.47 17.4775 153.129 16.8899C153.788 16.3022 154.673 16.0039 155.792 16.0039C156.911 16.0039 157.76 16.3022 158.428 16.8899C159.105 17.4865 159.439 18.273 159.439 19.2584C159.439 20.2438 159.105 21.0484 158.455 21.6541C157.796 22.2598 156.911 22.5672 155.792 22.5672C154.673 22.5672 153.788 22.2598 153.129 21.6541ZM153.599 51.1348C153.021 50.6285 152.732 49.8962 152.732 48.9379V29.8718C152.732 28.9226 153.021 28.1903 153.599 27.7021C154.176 27.2049 154.907 26.9608 155.792 26.9608C156.677 26.9608 157.417 27.2049 158.012 27.7021C158.599 28.1994 158.897 28.9226 158.897 29.8718V48.9379C158.897 49.8962 158.599 50.6285 158.012 51.1348C157.417 51.6501 156.677 51.9032 155.792 51.9032C154.907 51.9032 154.167 51.6501 153.599 51.1348Z" fill="#FCFCFC"/>
<path fill-rule="evenodd" clip-rule="evenodd" d="M77.4371 17.6073C38.4374 22.0876 9.36809 32.8594 3.70493 42.2966C2.68969 43.9887 2.83245 46.4751 7.36933 46.1335V47.8176C2.69762 49.3904 -1.70442 46.5704 0.659197 40.827C7.78177 23.5334 54.3958 12.2215 75.4145 10.9346C74.431 12.9285 73.9551 15.5579 77.4291 17.6073H77.4371Z" fill="#EF382A"/>
<path d="M12.8263 24.3516H7.36938V48.4133H12.8263V24.3516Z" fill="#FCFCFC"/>
<path d="M21.3687 33.9478H9.24927V38.2851H21.3687V33.9478Z" fill="#FCFCFC"/>
</svg>
