<svg width="59" height="59" viewBox="0 0 59 59" fill="none" xmlns="http://www.w3.org/2000/svg">
<rect width="59" height="59" rx="16.1474" fill="#FB9585"/>
<path d="M45.8333 20.5001V24.3317C45.8333 26.8334 44.2499 28.4167 41.7482 28.4167H36.3333V17.3492C36.3333 15.5917 37.7741 14.1667 39.5316 14.1667C41.2574 14.1826 42.8408 14.8792 43.9808 16.0192C45.1208 17.1751 45.8333 18.7584 45.8333 20.5001Z" stroke="#FCFCFC" stroke-width="1.5" stroke-miterlimit="10" stroke-linecap="round" stroke-linejoin="round"/>
<path d="M14.1667 22.0834V44.2501C14.1667 45.5642 15.655 46.3084 16.7 45.5167L19.4076 43.4901C20.0409 43.0151 20.9276 43.0784 21.4976 43.6484L24.1259 46.2926C24.7434 46.9101 25.7568 46.9101 26.3743 46.2926L29.0343 43.6326C29.5884 43.0784 30.4751 43.0151 31.0926 43.4901L33.8001 45.5167C34.8451 46.2926 36.3334 45.5484 36.3334 44.2501V17.3334C36.3334 15.5917 37.7584 14.1667 39.5001 14.1667H22.0834H20.5001C15.7501 14.1667 14.1667 17.0009 14.1667 20.5001V22.0834Z" stroke="#FCFCFC" stroke-width="1.5" stroke-miterlimit="10" stroke-linecap="round" stroke-linejoin="round"/>
<path d="M20.5 25.25H30" stroke="#FCFCFC" stroke-width="1.5" stroke-linecap="round" stroke-linejoin="round"/>
<path d="M21.6875 31.5833H28.8125" stroke="#FCFCFC" stroke-width="1.5" stroke-linecap="round" stroke-linejoin="round"/>
</svg>
