<svg width="59" height="59" viewBox="0 0 59 59" fill="none" xmlns="http://www.w3.org/2000/svg">
<rect width="59" height="59" rx="16.1474" fill="#8070DE"/>
<path d="M41.8751 30.7916C41.8751 28.6066 43.6484 26.8333 45.8334 26.8333V25.2499C45.8334 18.9166 44.2501 17.3333 37.9167 17.3333H22.0834C15.7501 17.3333 14.1667 18.9166 14.1667 25.2499V26.0416C16.3517 26.0416 18.1251 27.8149 18.1251 29.9999C18.1251 32.1849 16.3517 33.9583 14.1667 33.9583V34.7499C14.1667 41.0833 15.7501 42.6666 22.0834 42.6666H37.9167C44.2501 42.6666 45.8334 41.0833 45.8334 34.7499C43.6484 34.7499 41.8751 32.9766 41.8751 30.7916Z" stroke="#FCFCFC" stroke-width="1.5" stroke-linecap="round" stroke-linejoin="round"/>
<path d="M25.25 34.3542L34.75 24.8542" stroke="#FCFCFC" stroke-width="1.5" stroke-linecap="round" stroke-linejoin="round"/>
<path d="M34.7412 34.3542H34.7554" stroke="#FCFCFC" stroke-width="2" stroke-linecap="round" stroke-linejoin="round"/>
<path d="M25.2412 25.6459H25.2554" stroke="#FCFCFC" stroke-width="2" stroke-linecap="round" stroke-linejoin="round"/>
</svg>
