<svg width="59" height="59" viewBox="0 0 59 59" fill="none" xmlns="http://www.w3.org/2000/svg">
<rect width="59" height="59" rx="16.1474" fill="#71C67F"/>
<path d="M17.5418 43.4584C18.8559 44.7725 20.9776 44.7725 22.2918 43.4584L42.8751 22.875C44.1893 21.5609 44.1893 19.4392 42.8751 18.125C41.5609 16.8109 39.4393 16.8109 38.1251 18.125L17.5418 38.7084C16.2276 40.0225 16.2276 42.1442 17.5418 43.4584Z" stroke="#FCFCFC" stroke-width="1.5" stroke-linecap="round" stroke-linejoin="round"/>
<path d="M40.5159 25.2341L35.7659 20.4841" stroke="#FCFCFC" stroke-width="1.5" stroke-linecap="round" stroke-linejoin="round"/>
<path d="M25.4583 14.8634L27.8333 14.1667L27.1366 16.5417L27.8333 18.9167L25.4583 18.2201L23.0833 18.9167L23.7799 16.5417L23.0833 14.1667L25.4583 14.8634Z" stroke="#FCFCFC" stroke-linecap="round" stroke-linejoin="round"/>
<path d="M19.125 24.3634L21.5 23.6667L20.8033 26.0417L21.5 28.4167L19.125 27.7201L16.75 28.4167L17.4467 26.0417L16.75 23.6667L19.125 24.3634Z" stroke="#FCFCFC" stroke-linecap="round" stroke-linejoin="round"/>
<path d="M42.875 32.2799L45.25 31.5833L44.5533 33.9583L45.25 36.3333L42.875 35.6366L40.5 36.3333L41.1967 33.9583L40.5 31.5833L42.875 32.2799Z" stroke="#FCFCFC" stroke-linecap="round" stroke-linejoin="round"/>
</svg>
