<svg width="35" height="35" viewBox="0 0 35 35" fill="none" xmlns="http://www.w3.org/2000/svg">
<path fill-rule="evenodd" clip-rule="evenodd" d="M34.2831 17.1415C34.2831 26.6086 26.6086 34.2831 17.1415 34.2831C7.67453 34.2831 0 26.6086 0 17.1415C0 7.67453 7.67453 0 17.1415 0C26.6086 0 34.2831 7.67453 34.2831 17.1415ZM17.7558 12.6546C16.0885 13.3481 12.7563 14.7834 7.75924 16.9606C6.94778 17.2833 6.52271 17.599 6.48402 17.9076C6.41862 18.4293 7.07189 18.6347 7.96148 18.9145C8.08248 18.9525 8.20786 18.9919 8.3364 19.0337C9.21162 19.3182 10.3889 19.651 11.001 19.6643C11.5562 19.6763 12.1758 19.4474 12.8599 18.9776C17.5289 15.8259 19.939 14.2329 20.0903 14.1986C20.1971 14.1744 20.345 14.1439 20.4452 14.233C20.5455 14.3221 20.5356 14.4908 20.525 14.536C20.4603 14.8119 17.896 17.1959 16.5689 18.4297C16.1552 18.8143 15.8617 19.0872 15.8017 19.1495C15.6674 19.289 15.5304 19.4211 15.3988 19.548C14.5857 20.3318 13.9759 20.9196 15.4325 21.8795C16.1325 22.3407 16.6926 22.7222 17.2514 23.1027C17.8617 23.5183 18.4704 23.9328 19.258 24.4491C19.4586 24.5806 19.6502 24.7172 19.8369 24.8503C20.5471 25.3566 21.1852 25.8115 21.9734 25.739C22.4315 25.6968 22.9046 25.2661 23.1449 23.9815C23.7128 20.9458 24.829 14.3681 25.0869 11.6576C25.1096 11.4202 25.0811 11.1163 25.0583 10.9828C25.0355 10.8494 24.9877 10.6593 24.8143 10.5186C24.609 10.352 24.2919 10.3168 24.1501 10.3193C23.5054 10.3307 22.5162 10.6746 17.7558 12.6546Z" fill="url(#paint0_linear_29_1871)"/>
<defs>
<linearGradient id="paint0_linear_29_1871" x1="17.1415" y1="0" x2="17.1415" y2="34.0288" gradientUnits="userSpaceOnUse">
<stop stop-color="#2AABEE"/>
<stop offset="1" stop-color="#229ED9"/>
</linearGradient>
</defs>
</svg>
