<svg width="69" height="43" viewBox="0 0 69 43" fill="none" xmlns="http://www.w3.org/2000/svg">
<path d="M65 0H4C1.79086 0 0 1.79086 0 4V39C0 41.2091 1.79086 43 4 43H65C67.2091 43 69 41.2091 69 39V4C69 1.79086 67.2091 0 65 0Z" fill="#1B2846"/>
<path d="M35.1683 14.5139L31.9073 29.7598H27.963L31.2243 14.5139H35.1683ZM51.7621 24.3583L53.8386 18.633L55.0329 24.3583H51.7621ZM56.1651 29.7598H59.8119L56.6255 14.5139H53.2614C52.5029 14.5139 51.864 14.9536 51.5811 15.6315L45.6626 29.7598H49.8051L50.6273 27.4828H55.6869L56.1651 29.7598ZM45.8682 24.7823C45.8854 20.7589 40.3061 20.5358 40.3431 18.7382C40.3553 18.1918 40.8762 17.6099 42.0157 17.4611C42.5805 17.3882 44.139 17.3296 45.9058 18.1435L46.5968 14.9091C45.6474 14.566 44.4264 14.2354 42.9073 14.2354C39.008 14.2354 36.2649 16.3065 36.243 19.2748C36.2181 21.4697 38.2027 22.6934 39.6945 23.4244C41.2326 24.1717 41.7482 24.6511 41.7408 25.3186C41.7301 26.3414 40.5138 26.7942 39.382 26.8114C37.3977 26.8422 36.2477 26.2751 35.331 25.8478L34.6151 29.19C35.5381 29.6125 37.2391 29.9803 39 29.9992C43.1452 29.9992 45.856 27.9521 45.8682 24.7823ZM29.5325 14.5139L23.1416 29.7598H18.9727L15.8276 17.5924C15.637 16.8442 15.4708 16.5693 14.891 16.2531C13.9425 15.7379 12.3766 15.2561 11 14.9562L11.093 14.5139H17.8047C18.6596 14.5139 19.4287 15.0828 19.6243 16.0674L21.2856 24.8902L25.3888 14.5139H29.5325Z" fill="#3669B4"/>
</svg>
