<svg width="33" height="35" viewBox="0 0 33 35" fill="none" xmlns="http://www.w3.org/2000/svg">
<path d="M9.02172 28.847L9.51179 29.1528C11.571 30.439 13.9319 31.1193 16.3394 31.1207H16.3446C23.7381 31.1207 29.7557 24.7879 29.7588 17.0047C29.7599 13.2327 28.3662 9.68593 25.8334 7.01793C23.3005 4.35 19.9329 2.8798 16.3497 2.87826C8.9503 2.87826 2.93291 9.21015 2.92997 16.9932C2.92896 19.6603 3.63787 22.2578 4.98078 24.5054L5.30006 25.0393L3.94454 30.2482L9.02172 28.847ZM0.0695801 34.2831L2.35927 25.4827C0.947027 22.9071 0.203994 19.9853 0.205078 16.992C0.208637 7.62803 7.44837 0.00970459 16.3446 0.00970459C20.6618 0.0116595 24.7139 1.78039 27.7612 4.99033C30.8081 8.2005 32.4854 12.4676 32.484 17.0058C32.4802 26.3693 25.2394 33.989 16.3446 33.989C16.344 33.989 16.345 33.989 16.3446 33.989H16.3377C13.6368 33.9879 10.9826 33.2748 8.62536 31.9216L0.0695801 34.2831Z" fill="white"/>
<path d="M0.750795 16.9786C0.750795 19.8902 1.47375 22.7026 2.85678 25.1841L0.625065 33.6875L8.89183 31.4045C11.155 32.7279 13.7324 33.3897 16.3413 33.3897C24.9224 33.3897 31.9319 26.0444 31.9319 17.0117C31.9319 12.6111 30.2974 8.50834 27.3742 5.39817C24.4195 2.32109 20.5219 0.600574 16.3413 0.600574C7.76025 0.600574 0.750795 7.94587 0.750795 16.9786Z" fill="url(#paint0_linear_29_1872)"/>
<path d="M0.193932 16.9653C0.193932 19.9814 0.942804 22.8946 2.37543 25.4651L0.0636902 34.2734L8.6269 31.9085C10.9712 33.2794 13.6411 33.9649 16.3435 33.9649C25.2323 33.9649 32.4932 26.3562 32.4932 16.9996C32.4932 12.4412 30.8001 8.19133 27.772 4.96963C24.7114 1.78221 20.674 -7.62939e-06 16.3435 -7.62939e-06C7.45475 -7.62939e-06 0.193932 7.60868 0.193932 16.9653ZM5.3058 25.0196L4.98021 24.5055C3.64526 22.2434 2.92895 19.6386 2.92895 16.9996C2.92895 9.18526 8.95249 2.87896 16.3435 2.87896C19.9251 2.87896 23.3113 4.35271 25.8184 6.99176C28.3581 9.66509 29.7581 13.2295 29.7581 16.9996C29.7581 24.7796 23.7346 31.1202 16.3435 31.1202C13.9341 31.1202 11.5573 30.4348 9.50601 29.1324L9.01761 28.8239L3.9383 30.2291L5.3058 25.0196Z" fill="url(#paint1_linear_29_1872)"/>
<path fill-rule="evenodd" clip-rule="evenodd" d="M12.311 9.89853C12.0089 9.19165 11.6909 9.17748 11.4035 9.1651C11.1685 9.15451 10.8993 9.15516 10.6307 9.15516C10.3618 9.15516 9.92485 9.26146 9.55542 9.68625C9.18569 10.111 8.1438 11.1379 8.1438 13.2263C8.1438 15.315 9.58901 17.3331 9.79043 17.6166C9.99209 17.8996 12.5802 22.3223 16.6792 24.0239C20.0857 25.4379 20.7789 25.1566 21.5183 25.0859C22.2577 25.0151 23.9042 24.0592 24.2403 23.068C24.5763 22.0769 24.5763 21.2274 24.4755 21.0498C24.3747 20.8729 24.1058 20.7668 23.7025 20.5545C23.2992 20.3422 21.3166 19.3152 20.9469 19.1737C20.5773 19.0322 20.3083 18.9614 20.0395 19.3863C19.7706 19.8109 18.9983 20.7668 18.7629 21.0498C18.5277 21.3336 18.2924 21.3689 17.8891 21.1566C17.4858 20.9437 16.187 20.4959 14.6462 19.0499C13.4474 17.9248 12.6381 16.5353 12.4027 16.1104C12.1675 15.6858 12.3776 15.4559 12.5799 15.2442C12.7609 15.054 12.9832 14.7487 13.1848 14.5009C13.386 14.253 13.4533 14.0761 13.5877 13.793C13.7221 13.5095 13.6549 13.2617 13.5541 13.0494C13.4533 12.8371 12.6695 10.7378 12.311 9.89853Z" fill="white"/>
<defs>
<linearGradient id="paint0_linear_29_1872" x1="16.2768" y1="33.6875" x2="16.2768" y2="0.600574" gradientUnits="userSpaceOnUse">
<stop stop-color="#20B038"/>
<stop offset="1" stop-color="#60D66A"/>
</linearGradient>
<linearGradient id="paint1_linear_29_1872" x1="16.277" y1="34.2734" x2="16.277" y2="-7.62939e-06" gradientUnits="userSpaceOnUse">
<stop stop-color="#F9F9F9"/>
<stop offset="1" stop-color="white"/>
</linearGradient>
</defs>
</svg>
